<?xml version="1.0" encoding="utf-8"?>
<!-- Generator: Adobe Illustrator 26.0.3, SVG Export Plug-In . SVG Version: 6.00 Build 0)  -->
<svg version="1.1" id="图层_1" xmlns="http://www.w3.org/2000/svg" xmlns:xlink="http://www.w3.org/1999/xlink" x="0px" y="0px"
	 viewBox="0 0 200 200" style="enable-background:new 0 0 200 200;" xml:space="preserve">
<style type="text/css">
	.st0{fill-rule:evenodd;clip-rule:evenodd;fill:#07659C;}
	.st1{display:none;}
	.st2{display:inline;fill:#07659C;}
</style>
<path class="st0" d="M0.72,177.01c3.05-7.52,6.74-14.31,10.98-20.79c19.57-29.87,47.09-48.55,81.38-57.73
	c8.12-2.17,16.37-3.54,24.68-4.67c1.67-0.23,3.35-0.54,4.13-2.3c1.29-2.89-0.4-5.19-3.87-5.29c-8.71-0.27-17.06,1.88-25.37,3.99
	c-25.91,6.56-48.82,18.63-67.84,37.63c-0.76-0.53-0.18-0.93,0.01-1.26c4.07-7.09,8.19-14.15,12.22-21.27
	c0.96-1.69,2.27-2.91,3.87-3.92c10.51-6.68,21.46-12.5,33.2-16.74c2.29-0.83,4.33-1.91,3.62-4.84c-0.66-2.73-2.93-2.81-5.2-2.8
	c-6.2,0.03-12.41,0.01-19.15,0.01c14.85-25.74,29.51-51.14,44.4-76.96C131.95,59.2,165.83,117.85,200,177c-1.56,0-2.54,0-3.53,0
	c-23.32,0-46.65-0.04-69.97,0.05c-2.56,0.01-3.32-0.64-3.27-3.24c0.14-8.19,0.06-16.38-0.04-24.57c-0.08-6.64-2.45-8.53-8.97-7.43
	c-23.43,3.97-42.74,15.06-57.77,33.49c-1.02,1.25-2.03,1.8-3.66,1.74c-3.31-0.13-6.63-0.04-9.95-0.05c-0.2,0-0.4-0.08-0.8-0.17
	c0.75-2.2,2.3-3.88,3.63-5.62c17.66-23.12,40.93-36.59,69.82-40.29c0.72-0.09,1.43-0.25,2.14-0.41c3.33-0.74,4.32-2,3.88-4.82
	c-0.48-3.06-2.72-3.12-4.95-2.72c-7.94,1.39-15.88,2.72-23.58,5.25c-25.16,8.28-44.25,24.23-58.52,46.23
	c-1.33,2.04-2.62,2.76-4.92,2.62c-2.85-0.18-5.71-0.04-9.01-0.04c3.97-7.47,8.36-14.08,13.31-20.3
	c19.49-24.48,45.13-38.32,75.65-43.71c2.95-0.52,5.95-0.83,8.91-1.29c2.37-0.37,3.34-1.81,3.01-4.19c-0.34-2.47-1.88-3.4-4.15-3.13
	c-41.19,4.95-73.85,24.12-97.31,58.55c-2.62,3.85-4.89,7.93-6.89,12.14c-0.65,1.36-1.35,2.06-2.99,1.98
	C7.08,176.9,4.09,177.01,0.72,177.01z"/>
<g class="st1">
	<path class="st2" d="M87.09,201.75v84.5c0,2.78-0.18,5.1-0.54,6.96c-0.36,1.86-1.05,3.41-2.08,4.64c-1.03,1.23-2.48,2.16-4.34,2.8
		c-1.87,0.63-4.27,1.11-7.2,1.43l-5.59,0.59l-3.69-11.54l4.88-0.59c1.74-0.24,3.15-0.49,4.22-0.77c1.07-0.28,1.88-0.67,2.44-1.19
		c0.55-0.51,0.91-1.19,1.07-2.02c0.16-0.83,0.24-1.92,0.24-3.27v-18.21c-4.6,3.57-9.68,7.06-15.23,10.47l-4.28-7.97v18.69
		c0,2.78-0.22,5.1-0.65,6.96c-0.44,1.86-1.19,3.43-2.26,4.7c-1.07,1.27-2.52,2.22-4.34,2.86c-1.83,0.63-4.17,1.07-7.02,1.31
		l-5.95,0.48L33.06,291l5.71-0.48c1.67-0.16,3.01-0.4,4.05-0.71c1.03-0.32,1.8-0.75,2.32-1.31c0.52-0.55,0.87-1.25,1.07-2.08
		c0.2-0.83,0.3-1.88,0.3-3.15v-18.21c-2.3,1.82-4.7,3.61-7.2,5.35c-2.5,1.75-5.06,3.41-7.68,5l-4.76-8.81v5.36H14.49
		c-0.48,3.57-1.15,6.82-2.02,9.76c-0.87,2.94-1.96,5.73-3.27,8.39c-1.31,2.66-2.84,5.26-4.58,7.8c-1.75,2.54-3.77,5.24-6.07,8.09
		l-9.64-6.55c2.14-2.46,4.05-4.76,5.71-6.9c1.67-2.14,3.11-4.28,4.34-6.43c1.23-2.14,2.26-4.36,3.09-6.66
		c0.83-2.3,1.49-4.8,1.96-7.5H-9.91v-10.47H5.21c0.08-1.51,0.14-3.09,0.18-4.76c0.04-1.67,0.06-3.41,0.06-5.24v-2.62H-7.17V239H5.44
		v-12.14h-14.4v-10.12H9.49c0.95-1.67,1.96-3.51,3.04-5.53c1.07-2.02,2.08-4.05,3.03-6.07c0.95-2.02,1.85-3.99,2.68-5.89
		c0.83-1.9,1.49-3.53,1.96-4.88l8.93,3.57c-0.4,1.11-0.91,2.4-1.55,3.87c-0.64,1.47-1.35,3.03-2.14,4.7
		c-0.79,1.67-1.63,3.39-2.5,5.18c-0.87,1.79-1.71,3.47-2.5,5.06h8.57v6.9l7.38-2.98c0.63,1.35,1.35,2.96,2.14,4.82
		c0.79,1.87,1.59,3.83,2.38,5.89c0.79,2.06,1.53,4.17,2.2,6.31c0.67,2.14,1.25,4.17,1.73,6.07l-8.21,4.88
		c-0.32-1.59-0.77-3.43-1.37-5.53c-0.59-2.1-1.25-4.26-1.96-6.49c-0.71-2.22-1.45-4.36-2.2-6.43c-0.75-2.06-1.45-3.81-2.08-5.24v1.9
		H15.68V239h11.78v9.88H15.68v2.38c0,1.83-0.02,3.59-0.06,5.3c-0.04,1.71-0.1,3.35-0.18,4.94h11.42v3.69
		c3.41-1.82,6.84-3.91,10.29-6.25c3.45-2.34,6.56-4.74,9.34-7.2V212.7H29.37v-10.95h27.61v63.2c3.65-2.06,7.1-4.28,10.35-6.67
		c3.25-2.38,6.31-4.84,9.16-7.38v-38.2H59.83v-10.95H87.09z M1.64,216.5c-0.48-1.27-1.07-2.72-1.78-4.34
		c-0.71-1.62-1.49-3.25-2.32-4.88c-0.83-1.63-1.65-3.17-2.44-4.64c-0.79-1.47-1.51-2.68-2.14-3.63l7.97-4.28
		c0.71,0.95,1.47,2.12,2.26,3.51c0.79,1.39,1.57,2.84,2.32,4.34c0.75,1.51,1.47,3,2.14,4.46c0.67,1.47,1.21,2.8,1.61,3.99
		L1.64,216.5z M65.66,219.12c0.55,1.43,1.23,3.14,2.02,5.12c0.79,1.98,1.61,4.07,2.44,6.25c0.83,2.18,1.65,4.4,2.44,6.66
		c0.79,2.26,1.51,4.38,2.14,6.37l-8.09,4.64c-0.48-1.82-1.11-3.93-1.9-6.31c-0.79-2.38-1.63-4.8-2.5-7.26
		c-0.87-2.46-1.73-4.8-2.56-7.02c-0.83-2.22-1.57-4.05-2.2-5.47L65.66,219.12z"/>
	<path class="st2" d="M140.52,256.97c-1.11-1.59-2.38-3.23-3.81-4.94c-1.43-1.7-2.9-3.35-4.4-4.94v55.7h-11.07v-50.58
		c-1.83,4.45-3.81,8.73-5.95,12.85c-2.14,4.12-4.28,7.82-6.43,11.07l-6.78-10.35c1.51-2.38,3.11-5.1,4.82-8.15
		c1.71-3.05,3.39-6.27,5.06-9.64c1.67-3.37,3.27-6.82,4.82-10.35c1.55-3.53,2.92-6.96,4.11-10.29h-13.09v-11.31h13.45v-20.59
		l11.07,0.48v20.11h10.71v11.31h-10.71v9.28l1.78-2.02c1.03,0.95,2.16,2.02,3.39,3.21c1.23,1.19,2.46,2.42,3.69,3.69
		c1.23,1.27,2.4,2.54,3.51,3.81c1.11,1.27,2.1,2.42,2.97,3.45L140.52,256.97z M207.76,270.89c-5.95-3.01-11.11-6.31-15.47-9.88
		v41.42H181.1v-45.58l6.78,0.24c-2.78-2.78-5.31-5.75-7.62-8.93c-2.3-3.17-4.36-6.7-6.19-10.59h-0.95
		c-1.59,3.81-3.47,7.28-5.65,10.41c-2.18,3.14-4.78,6.21-7.8,9.22l5.95,0.24v9.16c0,4.44-0.26,8.39-0.77,11.84
		c-0.52,3.45-1.47,6.69-2.86,9.7c-1.39,3.01-3.29,5.91-5.71,8.69c-2.42,2.78-5.53,5.67-9.34,8.69l-7.85-8.33
		c3.41-2.94,6.13-5.49,8.15-7.68c2.02-2.18,3.59-4.36,4.7-6.55c1.11-2.18,1.85-4.54,2.2-7.08c0.36-2.54,0.54-5.67,0.54-9.4v-4.76
		c-3.81,3.17-8.41,6.59-13.81,10.23l-5.95-10c3.25-2.14,6.21-4.18,8.87-6.13c2.66-1.94,5.02-3.89,7.08-5.83
		c2.06-1.94,3.91-3.93,5.53-5.95c1.63-2.02,3.04-4.18,4.22-6.49h-15.59v-10.95h19.87c1.19-4.12,2.14-8.88,2.86-14.28
		c-3.65,0.32-7.24,0.59-10.77,0.83c-3.53,0.24-6.8,0.44-9.82,0.6L146,203.06c4.28-0.24,8.93-0.57,13.92-1.01
		c5-0.43,10.02-0.93,15.06-1.49c5.04-0.55,9.9-1.13,14.58-1.73c4.68-0.6,8.81-1.21,12.38-1.84l1.19,11.19
		c-3.17,0.48-6.77,0.97-10.77,1.49c-4.01,0.52-8.23,1.01-12.67,1.49c-0.4,2.86-0.83,5.58-1.31,8.15c-0.47,2.58-1.03,5.02-1.67,7.32
		h31.42v10.95h-22.25c1.51,2.38,3.19,4.52,5.06,6.43c1.86,1.9,3.89,3.71,6.07,5.42c2.18,1.71,4.6,3.35,7.26,4.94
		c2.66,1.59,5.57,3.25,8.75,5L207.76,270.89z"/>
</g>
</svg>
